<svg fill="#55bbff" xmlns="http://www.w3.org/2000/svg" viewBox="0 0 380.092 380.092">
<path d="M379.255,200.99c-3.153-10.587-14.291-16.615-24.876-13.461l-2.98,0.887c7.36-14.639,13.638-33.914,12.346-58.098
	c-1.43-26.694-12.729-51.757-31.816-70.572c-19.449-19.172-44.88-29.73-71.607-29.73c-36.426,0-62.35,24.331-77.936,40.941
	c-15.041-16.453-41.266-40.941-78.79-40.941c-26.727,0-52.157,10.558-71.607,29.729C12.899,78.561,1.6,103.624,0.17,130.32
	c-1.823,34.135,11.386,58.445,21.479,73.761c11.933,18.108,42.878,52.965,75.253,84.765c62.338,61.23,77.781,61.23,85.203,61.23
	c10.318,0,23.289-5.301,53.048-31.172c8.336-7.247,9.219-19.88,1.972-28.216c-7.247-8.335-19.88-9.218-28.216-1.972
	c-14.936,12.985-23.045,18.291-26.795,20.386c-8.507-4.773-29.353-21.073-61.492-53.055c-28.773-28.632-55.737-59.052-65.573-73.978
	c-11.402-17.301-15.869-32.14-14.936-49.614c1.843-34.43,30.32-62.441,63.481-62.441c24.82,0,43.422,21.187,54.536,33.845
	c7.411,8.44,13.265,15.107,23.828,15.107c10.639,0,16.716-6.63,25.127-15.806c11.364-12.397,30.384-33.146,53.234-33.146
	c33.16,0,61.638,28.011,63.48,62.439c0.7,13.089-1.644,24.715-7.681,37.037l-0.306-3.671c-0.916-11.007-10.576-19.185-21.59-18.272
	c-11.008,0.917-19.188,10.583-18.271,21.59l4.323,51.941c0.611,7.335,4.385,13.88,10.354,17.955c4,2.732,8.675,4.142,13.447,4.142
	c2.347,0,4.719-0.341,7.044-1.034l54.672-16.277C376.379,222.713,382.406,211.576,379.255,200.99z"/>
</svg>
