<svg fill="#55bbff" xmlns="http://www.w3.org/2000/svg" viewBox="0 0 319.035 319.035">
	<path d="M318.382,225.181l-10.335-39.599c-1.858-7.123-6.697-12.924-13.275-15.917s-14.131-2.83-20.724,0.449l-40.188,19.992
		c-9.89,4.92-13.918,16.925-8.999,26.814c3.635,7.306,11.136,11.399,18.794,11.064c-19.938,26.19-51.22,42.266-85.822,42.266
		c-47.832,0-89.333-30.704-103.271-76.404c-3.222-10.565-14.398-16.518-24.964-13.295c-10.565,3.222-16.518,14.399-13.295,24.964
		c9.053,29.686,27.764,56.355,52.683,75.095c25.785,19.391,56.507,29.64,88.847,29.64s63.063-10.249,88.847-29.64
		c14.225-10.698,26.416-23.986,35.953-38.937c3.708,5.313,9.832,8.563,16.384,8.563c1.671,0,3.372-0.211,5.064-0.653
		C314.768,246.795,321.171,235.869,318.382,225.181z"/>
	<path d="M24.263,149.369c3.129,1.424,6.478,2.133,9.839,2.133c3.706,0,7.428-0.863,10.885-2.582l40.188-19.992
		c9.89-4.92,13.918-16.925,8.999-26.814c-3.634-7.305-11.136-11.4-18.794-11.064c19.938-26.19,51.219-42.266,85.822-42.266
		c47.832,0,89.333,30.704,103.271,76.404c2.629,8.622,10.554,14.171,19.123,14.171c1.932,0,3.897-0.283,5.841-0.875
		c10.565-3.222,16.518-14.399,13.295-24.964c-9.053-29.686-27.764-56.355-52.683-75.095c-25.785-19.391-56.507-29.64-88.847-29.64
		S98.14,19.033,72.355,38.424c-14.229,10.701-26.423,23.994-35.961,38.95c-4.654-6.671-13.111-10.098-21.441-7.923
		C4.266,72.24-2.136,83.166,0.653,93.853l10.335,39.599C12.847,140.575,17.685,146.376,24.263,149.369z"/>
</svg>
